<?xml version="1.0" encoding="iso-8859-1"?>
<!-- Uploaded to: SVG Repo, www.svgrepo.com, Generator: SVG Repo Mixer Tools -->
<svg height="800px" width="800px" version="1.1" id="Layer_1" xmlns="http://www.w3.org/2000/svg" xmlns:xlink="http://www.w3.org/1999/xlink" 
	 viewBox="0 0 512 512" xml:space="preserve">
<path style="fill:#538489;" d="M120.085,476.194c-13.466-2.372-25.207-9.856-33.05-21.06s-10.854-24.789-8.482-38.255
	c4.326-24.516,25.506-42.317,50.372-42.317c2.987,0,5.999,0.265,8.951,0.794l102.323,18.039l-18.381,17.476
	c-12.535,11.913-18.244,29.124-15.266,46.029c0.845,4.762,2.517,9.532,5.12,14.566l11.887,22.972L120.085,476.194z"/>
<path style="fill:#FFE7E5;" d="M256.004,192c-49.408,0-89.6-40.192-89.6-89.6s40.192-89.6,89.6-89.6s89.6,40.192,89.6,89.6
	S305.412,192,256.004,192z"/>
<path style="fill:#538489;" d="M256.926,499.2c-24.866,0-46.046-17.801-50.372-42.317c-2.372-13.466,0.64-27.059,8.482-38.255
	c7.842-11.196,19.584-18.679,33.05-21.06l126.046-22.221c2.944-0.521,5.956-0.785,8.943-0.785c24.866,0,46.046,17.801,50.372,42.317
	c2.372,13.466-0.64,27.059-8.482,38.255s-19.584,18.679-33.05,21.06l-126.046,22.221C262.933,498.936,259.913,499.2,256.926,499.2z"
	/>
<path style="fill:#8CC0C5;" d="M137.86,375.347c-0.043,0.009-0.119,0.009-0.205,0.009c-0.299,0-0.811-0.043-1.314-0.119
	l-25.489-3.55l-13.585,13.551c-6.033,6.042-14.071,9.37-22.613,9.37s-16.58-3.328-22.622-9.378
	c-6.05-6.042-9.378-14.08-9.378-22.622c0-8.55,3.337-16.589,9.378-22.63l159.514-159.531l8.047,3.618
	c11.733,5.265,23.987,7.936,36.412,7.936s24.678-2.671,36.412-7.936l8.047-3.618l159.522,159.531
	c6.042,6.033,9.378,14.071,9.378,22.622c0,8.542-3.328,16.58-9.378,22.622c-6.042,6.05-14.08,9.378-22.622,9.378
	s-16.58-3.328-22.622-9.378l-13.577-13.542l-25.489,3.55c-0.666,0.094-1.331,0.145-1.997,0.179l-117.675,20.77L137.86,375.347z"/>
<path style="fill:#573A32;" d="M319.893,181.777c23.287-18.782,38.511-47.198,38.511-79.377c0-56.465-45.935-102.4-102.4-102.4
	s-102.4,45.935-102.4,102.4c0,32.179,15.223,60.587,38.511,79.377L42.961,330.931c-8.465,8.465-13.124,19.712-13.124,31.676
	s4.659,23.219,13.124,31.676c6.886,6.886,15.65,11.085,25.105,12.476c-0.802,2.586-1.647,5.163-2.125,7.885
	c-2.97,16.836,0.794,33.818,10.598,47.821s24.474,23.347,41.31,26.317l126.054,22.229c3.695,0.657,7.45,0.99,11.17,0.99
	c0.265,0,0.503-0.094,0.768-0.094c0.375,0,0.717,0.094,1.092,0.094c3.721,0,7.475-0.333,11.162-0.981l126.054-22.229
	c16.836-2.97,31.505-12.314,41.31-26.317c9.805-14.003,13.568-30.985,10.598-47.821c-0.478-2.731-1.323-5.299-2.125-7.885
	c9.463-1.391,18.227-5.598,25.105-12.476c8.465-8.465,13.124-19.712,13.124-31.676s-4.659-23.219-13.124-31.676L319.893,181.777z
	 M179.204,102.4c0-42.419,34.381-76.8,76.8-76.8s76.8,34.381,76.8,76.8s-34.381,76.8-76.8,76.8S179.204,144.819,179.204,102.4z
	 M193.95,459.11c1.152,6.537,3.439,12.587,6.349,18.227l-77.995-13.756c-20.89-3.686-34.833-23.595-31.147-44.484
	c3.285-18.628,19.49-31.736,37.769-31.736c2.21,0,4.454,0.196,6.716,0.589l77.363,13.645
	C197.961,415.889,190.084,437.18,193.95,459.11z M389.696,463.582l-126.054,22.229c-2.253,0.393-4.497,0.589-6.707,0.589
	c-18.287,0-34.492-13.107-37.769-31.735c-3.686-20.89,10.266-40.798,31.147-44.484l126.054-22.229
	c2.253-0.401,4.497-0.589,6.716-0.589c18.287,0,34.483,13.107,37.769,31.736C424.529,439.979,410.586,459.904,389.696,463.582z
	 M450.94,376.183c-3.746,3.746-8.661,5.623-13.577,5.623s-9.83-1.877-13.577-5.623L319.936,272.546
	c-5.001-5.001-13.107-5.001-18.099,0c-4.992,5.001-5.001,13.107,0,18.099l72.064,71.919c-0.657,0.094-1.331,0.06-1.98,0.171
	l-115.917,20.446l-115.917-20.437c-0.657-0.119-1.323-0.077-1.98-0.171l72.064-71.919c5.001-5.001,5.001-13.107,0-18.099
	s-13.107-5.001-18.099,0L88.222,376.192c-3.746,3.746-8.661,5.623-13.577,5.623s-9.83-1.877-13.577-5.623
	c-7.501-7.501-7.501-19.652,0-27.153l153.284-153.284c12.757,5.709,26.795,9.045,41.651,9.045c14.857,0,28.894-3.337,41.651-9.054
	L450.94,349.03C458.441,356.531,458.441,368.683,450.94,376.183z"/>
</svg>